<?xml version="1.0" standalone="no"?>
<!DOCTYPE svg PUBLIC "-//W3C//DTD SVG 20010904//EN"
 "http://www.w3.org/TR/2001/REC-SVG-20010904/DTD/svg10.dtd">
<svg version="1.0" xmlns="http://www.w3.org/2000/svg"
 width="1067.000000pt" height="1067.000000pt" viewBox="0 0 1067.000000 1067.000000"
 preserveAspectRatio="xMidYMid meet">
<metadata>
Created by potrace 1.14, written by Peter Selinger 2001-2017
</metadata>
<g transform="translate(0.000000,1067.000000) scale(0.100000,-0.100000)"
fill="#000000" stroke="none">
<path d="M5627 10454 c-1 -1 -42 -5 -92 -8 -49 -3 -99 -8 -110 -10 -11 -2 -41
-6 -66 -10 -121 -18 -235 -45 -364 -87 -99 -33 -102 -33 -305 -35 -113 -1
-225 -4 -250 -8 -25 -3 -65 -9 -90 -12 -25 -3 -60 -8 -78 -12 l-34 -7 31 -35
c49 -55 125 -180 115 -190 -5 -5 -42 -33 -81 -63 -100 -73 -233 -195 -323
-295 -41 -45 -76 -87 -78 -92 -2 -5 34 8 80 29 111 51 284 116 421 157 61 18
112 32 112 31 92 -159 200 -307 328 -452 37 -41 42 -40 50 10 29 169 201 553
255 569 15 5 115 18 232 31 102 11 313 22 475 24 98 2 99 2 70 18 -67 36 -268
117 -394 159 -74 25 -137 46 -138 48 -6 5 151 113 220 151 37 20 98 48 135 61
37 13 60 24 52 25 -32 3 -171 5 -173 3z"/>
<path d="M6790 10005 c-1 -5 -1 -27 0 -48 2 -45 -17 -166 -30 -186 -7 -12 -20
-9 -75 17 -36 18 -72 32 -78 32 -7 0 -17 4 -22 8 -12 11 -132 53 -245 86 -83
25 -240 59 -330 71 l-45 7 38 -29 c138 -103 193 -146 277 -219 90 -78 199
-182 284 -271 l38 -41 -53 -78 c-87 -130 -242 -330 -293 -379 -6 -6 -19 -20
-29 -31 l-18 -21 88 18 c48 10 102 21 118 23 17 3 53 10 80 15 28 5 82 13 120
16 39 4 72 9 75 10 4 2 60 7 126 11 l120 7 96 -144 c119 -180 155 -237 202
-319 20 -36 41 -72 46 -80 5 -8 28 -51 51 -95 23 -44 44 -83 48 -87 11 -13 -1
351 -14 402 -2 8 -6 41 -10 73 -3 31 -13 91 -20 133 -8 42 -15 80 -15 84 0 22
219 -57 280 -100 15 -11 31 -20 34 -20 10 0 -83 169 -137 250 -70 106 -134
179 -255 297 -89 86 -113 116 -156 198 -28 52 -79 135 -113 183 -68 95 -181
223 -183 207z"/>
<path d="M3729 9933 c-48 -40 -246 -237 -295 -293 -270 -314 -483 -753 -539
-1115 -6 -37 -2 -33 39 43 49 90 146 234 200 297 l33 39 29 -59 c28 -61 144
-248 149 -243 2 2 6 44 9 93 13 196 15 210 48 380 l22 110 55 54 c73 69 226
198 321 268 41 31 79 59 83 63 20 18 -251 -12 -326 -36 -15 -5 -16 -2 -6 23
51 123 185 366 217 390 8 7 13 15 10 18 -2 3 -24 -12 -49 -32z"/>
<path d="M4876 9299 c-3 -8 -16 -66 -30 -129 -46 -202 -80 -457 -90 -663 -1
-26 -10 -31 -146 -86 -80 -32 -167 -69 -195 -81 -144 -62 -175 -77 -284 -127
l-95 -44 50 -23 c27 -12 108 -46 179 -75 72 -29 139 -56 150 -61 23 -10 213
-78 294 -106 60 -21 57 -15 65 -133 10 -154 58 -439 118 -708 l12 -51 28 44
c15 25 28 47 28 49 0 7 167 281 272 447 88 138 104 159 122 154 35 -10 260
-68 276 -71 8 -2 44 -11 80 -20 36 -9 72 -18 80 -20 8 -2 65 -15 126 -29 120
-27 258 -55 314 -63 34 -5 32 -3 -66 98 -155 160 -273 291 -392 439 -42 52
-85 104 -94 114 -10 11 -18 23 -18 28 0 12 313 443 387 533 22 27 140 182 147
193 9 15 -2 14 -124 -18 -47 -12 -96 -24 -110 -26 -68 -13 -578 -161 -652
-189 -13 -5 -39 26 -119 147 -57 84 -149 229 -206 322 -56 93 -105 163 -107
155z"/>
<path d="M3307 8523 c-90 -151 -163 -308 -203 -437 l-18 -58 -81 -38 c-44 -21
-97 -54 -117 -72 l-38 -33 29 -66 c15 -37 51 -100 78 -140 l51 -74 5 -150 c3
-82 8 -159 10 -170 3 -11 8 -41 11 -66 8 -60 41 -185 67 -255 l22 -57 38 116
c21 64 59 159 85 211 l47 96 31 -23 c17 -13 56 -42 86 -64 64 -49 309 -203
321 -203 4 0 -10 36 -32 81 -76 153 -189 458 -189 508 0 24 129 169 295 331
82 81 114 110 200 182 l29 26 -74 -4 c-93 -4 -235 -14 -275 -19 -16 -2 -55 -7
-85 -10 -57 -7 -61 -7 -146 -19 l-52 -8 -7 54 c-4 29 -9 60 -10 68 -3 14 -7
54 -20 175 -3 28 -7 76 -10 109 -2 32 -6 60 -8 63 -3 2 -20 -22 -40 -54z"/>
<path d="M7360 8226 c-11 -26 -20 -51 -20 -54 0 -8 -84 -217 -124 -307 -110
-250 -177 -379 -201 -382 -164 -21 -429 -20 -685 3 l-65 6 21 -23 c87 -100
124 -139 234 -250 110 -110 206 -198 242 -220 7 -5 -2 -28 -28 -70 -68 -115
-199 -313 -252 -382 -34 -44 -46 -67 -35 -63 10 3 47 12 83 21 167 42 423 158
536 242 17 13 34 23 37 23 16 0 129 -105 157 -145 17 -25 35 -43 41 -40 20 13
97 214 113 300 13 63 16 80 21 120 4 22 8 54 11 70 3 17 29 66 58 110 127 188
220 413 262 625 l6 35 -23 -30 c-39 -49 -81 -89 -139 -132 -60 -44 -139 -87
-147 -80 -6 7 -11 48 -17 147 -6 93 -30 327 -41 390 -3 14 -7 48 -11 75 -3 28
-8 52 -10 54 -2 2 -13 -17 -24 -43z"/>
<path d="M3755 6998 c20 -66 135 -330 195 -445 38 -73 65 -135 62 -137 -13 -8
-147 -44 -202 -55 -66 -14 -187 -17 -250 -7 l-45 7 47 -44 c123 -116 427 -242
677 -282 38 -6 54 -17 115 -82 117 -124 258 -232 372 -283 60 -27 154 -60 154
-55 0 2 -9 27 -20 54 -23 59 -27 78 -43 191 -18 123 -22 115 58 117 171 3 455
20 462 27 1 1 -42 21 -95 44 -129 56 -437 218 -436 229 1 4 5 50 9 100 3 51 8
103 10 115 2 13 6 50 10 83 4 32 8 66 10 75 1 8 6 37 9 63 4 27 9 58 12 70 2
12 11 61 19 110 9 49 18 94 21 98 12 20 -14 6 -51 -28 -190 -171 -511 -403
-538 -386 -56 34 -367 269 -387 292 -3 3 -34 30 -70 60 -36 30 -73 63 -83 73
-24 24 -30 23 -22 -4z"/>
<path d="M6398 6433 c-52 -79 -195 -251 -295 -354 l-104 -107 -192 0 c-177 1
-260 5 -407 22 l-55 7 40 -36 c63 -57 195 -154 254 -188 50 -28 52 -31 35 -45
-40 -30 -179 -94 -267 -123 -51 -17 -93 -32 -95 -34 -5 -4 278 13 328 21 19 2
46 6 60 8 310 44 667 181 950 363 152 98 360 265 360 289 0 4 -8 0 -17 -8 -72
-63 -365 -178 -542 -213 -32 -7 -33 -6 -27 21 20 97 26 348 9 392 -9 23 -10
23 -35 -15z"/>
<path d="M5178 4965 c-2 -1 -48 -5 -103 -9 -108 -7 -125 -9 -260 -32 -380 -65
-741 -214 -1073 -441 -53 -37 -99 -69 -102 -73 -3 -3 -27 -24 -55 -45 -60 -48
-95 -79 -188 -166 l-71 -67 34 -40 c19 -22 38 -39 41 -39 4 1 53 46 110 99
254 236 529 413 829 532 96 37 290 99 349 111 9 2 50 10 91 19 100 20 137 26
280 42 65 7 395 7 460 0 67 -8 138 -17 165 -22 11 -2 38 -7 60 -9 32 -5 204
-45 250 -58 195 -60 340 -118 485 -194 210 -112 434 -273 599 -432 40 -39 76
-71 80 -71 4 0 23 16 42 36 l34 36 -94 89 c-414 391 -956 646 -1516 713 -27 3
-68 9 -90 12 -40 5 -352 13 -357 9z"/>
<path d="M4870 4663 c-58 -12 -116 -24 -130 -26 -76 -14 -108 -21 -137 -34
-47 -19 -48 -8 37 -418 28 -132 51 -180 102 -206 55 -28 132 -26 289 8 l130
28 -6 35 c-4 19 -9 42 -10 50 -2 8 -4 21 -4 28 -1 16 -20 14 -165 -17 -158
-33 -166 -31 -192 55 -17 57 -16 57 75 75 36 7 68 14 71 14 3 1 23 5 45 9 40
8 105 26 105 29 -1 1 -7 27 -14 57 -15 66 -7 65 -190 26 -70 -15 -129 -26
-131 -24 -1 2 -7 28 -13 58 -6 30 -13 62 -17 71 -7 18 7 23 81 34 21 4 48 8
59 10 145 31 157 33 177 34 10 1 15 8 13 19 -2 9 -7 38 -11 65 -8 55 -1 55
-164 20z"/>
<path d="M5715 4616 c-70 -31 -80 -55 -156 -344 -59 -227 -62 -246 -40 -265
20 -18 88 -40 100 -33 5 3 23 64 41 136 18 71 36 130 41 130 13 0 284 -72 289
-76 2 -3 12 23 22 58 10 35 14 65 9 68 -5 3 -73 21 -151 40 l-141 35 6 35 c10
52 33 89 59 96 13 3 83 -11 160 -31 76 -20 139 -35 141 -33 4 4 35 122 32 124
-1 1 -67 18 -147 38 -154 38 -216 43 -265 22z"/>
<path d="M3972 4329 c-44 -36 -48 -43 -36 -57 225 -273 272 -339 281 -392 10
-69 -88 -170 -166 -170 -64 0 -96 27 -238 201 -76 93 -140 169 -143 169 -3 0
-23 -16 -45 -35 -22 -19 -43 -35 -47 -35 -15 0 -8 -26 15 -50 12 -14 49 -59
81 -100 33 -41 63 -77 66 -80 3 -3 29 -35 57 -71 86 -109 158 -145 268 -136
107 10 204 76 260 179 24 44 29 64 29 123 -1 101 -12 119 -237 395 -7 8 -28
34 -46 58 -19 23 -37 42 -41 42 -4 0 -30 -18 -58 -41z"/>
<path d="M6602 4178 c-45 -29 -181 -116 -302 -193 -120 -77 -219 -143 -220
-146 0 -4 27 -23 60 -43 l60 -35 208 134 c114 74 208 130 210 125 3 -7 -30
-129 -53 -198 -4 -10 -11 -8 -27 7 -12 12 -26 21 -30 21 -13 0 -108 -63 -108
-71 0 -6 30 -33 99 -87 24 -19 24 -19 8 -67 -19 -54 -22 -92 -8 -97 5 -1 30
-22 55 -46 l45 -42 10 37 c6 21 27 94 46 163 20 69 38 132 40 140 2 8 25 87
50 175 25 88 47 169 49 180 7 41 -40 94 -85 95 -14 0 -62 -23 -107 -52z"/>
<path d="M5120 3838 c-64 -7 -163 -23 -246 -42 -66 -14 -223 -74 -316 -121
-157 -78 -272 -161 -410 -294 l-77 -74 22 -28 c12 -15 28 -30 35 -33 9 -4 53
31 112 87 221 210 447 325 770 392 135 27 368 28 515 1 17 -3 44 -8 60 -11 87
-17 230 -64 323 -107 158 -75 301 -177 436 -311 l89 -89 35 35 34 34 -68 72
c-239 254 -564 422 -929 480 -89 15 -288 19 -385 9z"/>
<path d="M538 3075 c-1 -2 -19 -6 -40 -9 -203 -32 -380 -182 -453 -384 -35
-97 -48 -231 -32 -327 37 -226 190 -409 400 -479 154 -52 351 -35 507 44 78
39 75 34 86 160 3 41 8 78 11 83 2 4 -23 -10 -57 -32 -157 -101 -314 -124
-444 -63 -143 67 -246 229 -251 394 -9 270 155 456 389 441 117 -7 205 -70
243 -172 20 -56 16 -51 42 -56 21 -4 21 -2 15 103 -3 59 -7 140 -8 180 -1 39
-6 76 -12 81 -18 18 -170 39 -281 39 -61 0 -113 -1 -115 -3z"/>
<path d="M10110 3000 c-19 -4 -51 -10 -70 -14 -102 -20 -209 -96 -251 -178
-43 -84 -35 -214 18 -290 51 -75 137 -120 353 -185 147 -44 193 -65 219 -102
60 -83 9 -178 -112 -211 -75 -20 -210 -9 -273 23 -83 42 -143 120 -161 208 -4
21 -11 29 -22 27 -17 -4 -16 6 -12 -285 l1 -61 48 -15 c26 -9 61 -18 77 -21
17 -4 41 -9 55 -12 14 -3 86 -8 160 -10 116 -3 147 0 220 20 147 39 230 97
275 192 37 79 37 191 -1 266 -48 94 -128 139 -370 208 -210 61 -254 90 -254
170 0 63 37 102 124 130 82 26 219 9 291 -37 53 -33 136 -149 119 -166 -3 -2
7 -7 21 -9 l25 -5 -6 96 c-3 53 -6 124 -6 158 l-1 61 -51 16 c-111 34 -312 46
-416 26z"/>
<path d="M7552 2980 c-99 -26 -165 -63 -237 -135 -101 -100 -155 -233 -156
-383 0 -65 3 -84 21 -168 27 -120 107 -240 210 -314 87 -61 167 -87 281 -88
167 -1 291 47 398 155 106 107 154 231 154 393 0 253 -141 461 -362 531 -92
29 -216 33 -309 9z m223 -164 c128 -59 206 -227 206 -440 -1 -124 -47 -233
-122 -287 -42 -30 -129 -49 -174 -39 -19 4 -35 6 -35 4 0 -11 -81 39 -110 67
-92 93 -136 223 -135 404 1 120 43 217 117 274 60 45 176 53 253 17z"/>
<path d="M1585 2981 c-22 -4 -109 -6 -192 -4 -145 1 -153 1 -153 -18 0 -12 7
-19 18 -19 10 0 27 -6 37 -14 19 -14 20 -32 20 -468 1 -249 -1 -461 -3 -472
-3 -10 -20 -25 -38 -32 -44 -18 -48 -53 -6 -48 25 4 280 5 327 2 37 -2 43 2
38 21 -3 11 -17 21 -33 25 -16 3 -31 14 -35 25 -5 17 -8 199 -6 364 l1 47 197
-2 197 -3 0 -204 c-1 -187 -2 -205 -19 -217 -10 -8 -27 -14 -37 -14 -12 0 -18
-8 -18 -24 0 -20 4 -24 23 -20 28 6 279 6 330 0 31 -3 37 -1 37 15 0 12 -12
24 -34 33 -25 10 -34 21 -37 42 -7 52 -3 888 5 911 4 13 18 24 36 28 21 5 30
13 30 26 0 18 -8 19 -135 16 -74 -2 -161 0 -195 3 -57 5 -60 5 -60 -16 0 -16
8 -23 29 -27 19 -4 32 -14 37 -29 9 -30 11 -349 2 -354 -10 -6 -379 -6 -385 0
-7 7 -4 346 3 358 4 5 21 16 39 24 26 10 32 18 28 34 -3 11 -6 19 -7 19 0 -1
-19 -4 -41 -8z"/>
<path d="M2847 2968 c-4 -13 5 -23 29 -34 19 -9 34 -22 34 -28 0 -12 -21 -66
-225 -586 -131 -334 -138 -349 -176 -363 -20 -8 -28 -17 -27 -33 2 -17 7 -21
28 -18 47 8 176 10 243 4 60 -5 67 -4 67 13 0 11 -12 22 -31 29 -47 16 -54 48
-25 121 13 34 32 87 43 117 l20 55 160 3 159 2 33 -97 c41 -125 44 -160 20
-182 -11 -9 -29 -18 -42 -21 -32 -8 -30 -46 3 -43 44 4 243 6 310 4 36 -1 70
-2 77 -2 18 1 3 40 -18 46 -27 9 -64 62 -82 120 -13 44 -58 182 -244 758 l-48
148 -95 -4 c-52 -2 -121 -1 -152 3 -49 5 -57 4 -61 -12z m177 -263 c3 -17 8
-41 11 -55 3 -14 7 -34 9 -45 6 -29 33 -132 50 -186 l14 -45 -114 -1 c-63 0
-114 0 -114 1 0 1 14 39 31 86 17 47 44 123 60 170 39 113 39 113 44 109 2 -3
6 -18 9 -34z"/>
<path d="M8480 2964 c0 -16 8 -24 29 -29 16 -3 32 -16 37 -28 5 -12 9 -226 8
-475 -1 -433 -2 -453 -20 -467 -10 -8 -27 -15 -36 -15 -11 0 -18 -8 -18 -20 0
-18 11 -25 34 -21 29 6 173 6 220 1 44 -5 57 -3 61 9 6 15 -11 30 -35 31 -25
1 -48 24 -56 56 -13 51 -11 745 2 731 7 -7 125 -190 264 -407 139 -217 259
-402 267 -410 10 -11 36 -15 97 -15 l83 0 1 499 0 500 22 18 c12 10 28 18 35
18 14 0 24 19 18 36 -2 7 -19 8 -46 5 -45 -7 -234 -4 -254 3 -6 3 -13 -1 -16
-7 -7 -21 4 -37 27 -37 31 0 66 -35 67 -68 4 -114 3 -605 -1 -607 -5 -3 -158
236 -183 285 -4 8 -27 45 -50 82 -23 37 -80 130 -127 207 l-85 140 -107 -3
c-59 -1 -136 1 -172 4 -63 5 -66 4 -66 -16z"/>
<path d="M3810 2971 c0 -12 16 -26 45 -41 l30 -16 -1 -119 c-1 -66 -4 -172 -8
-235 -9 -157 -15 -265 -21 -395 -9 -185 -13 -198 -71 -214 -15 -4 -28 -15 -30
-24 -2 -18 11 -21 81 -16 55 3 138 3 215 -1 58 -3 65 -2 65 15 0 13 -13 22
-47 32 -39 11 -48 18 -53 43 -4 16 -3 141 1 277 3 136 7 287 8 335 0 48 4 84
8 80 4 -4 51 -120 103 -257 97 -255 117 -306 176 -455 l34 -84 67 -1 67 0 25
70 c25 72 205 602 233 688 9 26 17 46 19 45 1 -2 5 -46 9 -98 3 -52 8 -111 10
-130 2 -19 6 -71 10 -115 3 -44 8 -116 11 -160 8 -109 9 -166 1 -196 -7 -26
-43 -49 -75 -49 -11 0 -18 -9 -20 -23 -1 -21 2 -23 36 -20 55 5 228 7 302 4
88 -3 89 -3 86 16 -2 10 -16 21 -34 25 -17 5 -36 16 -41 26 -5 9 -12 62 -16
117 -3 55 -8 116 -10 135 -2 19 -7 76 -10 125 -3 50 -9 117 -11 150 -17 195
-26 374 -21 397 4 13 18 28 35 34 16 6 29 18 29 26 0 13 -25 16 -173 15 l-172
0 -30 -86 c-44 -124 -191 -557 -209 -616 -9 -27 -18 -45 -20 -40 -2 6 -66 174
-142 375 l-138 365 -177 1 c-97 1 -176 -1 -176 -5z"/>
<path d="M5376 2972 c-17 -16 -4 -41 24 -47 22 -5 32 -14 38 -36 4 -17 7 -222
6 -457 0 -455 -1 -466 -49 -478 -18 -4 -25 -13 -25 -30 0 -19 4 -22 23 -18 26
6 333 7 362 1 11 -3 25 0 32 5 19 15 3 37 -32 44 -70 13 -68 0 -70 442 0 218
3 404 7 413 12 25 189 21 238 -5 61 -33 92 -91 92 -172 1 -151 -78 -227 -237
-231 -44 0 -81 -2 -83 -2 -1 -1 2 -10 8 -20 15 -28 112 -61 184 -63 162 -4
287 66 343 191 55 123 25 293 -66 373 -37 33 -114 70 -171 83 -40 9 -616 16
-624 7z"/>
<path d="M6507 2959 c3 -11 11 -19 18 -19 7 0 23 -8 35 -18 l22 -18 0 -456 c0
-321 -3 -462 -11 -477 -7 -12 -21 -21 -35 -21 -29 0 -35 -6 -29 -30 3 -13 12
-17 28 -14 28 5 224 8 290 5 72 -4 75 -3 75 19 0 13 -7 20 -20 20 -11 0 -28 8
-38 18 -16 16 -17 52 -17 481 0 445 1 463 20 477 10 8 27 14 37 14 11 0 18 7
18 19 0 17 -11 18 -199 18 -189 0 -198 -1 -194 -18z"/>
<path d="M5641 1403 c-209 -35 -335 -181 -348 -400 -11 -186 72 -340 225 -415
114 -56 253 -46 361 26 l51 34 11 -38 c9 -29 18 -39 37 -43 51 -10 52 -6 52
159 0 141 2 156 20 174 11 11 27 20 35 20 8 0 15 8 15 18 0 15 -15 17 -165 17
-157 0 -166 -1 -163 -19 2 -13 13 -20 32 -22 40 -4 46 -17 46 -100 0 -84 -17
-114 -78 -132 -107 -32 -214 34 -265 165 -22 56 -27 87 -28 159 -1 190 108
304 279 292 37 -3 83 -13 102 -23 43 -22 89 -71 97 -105 6 -24 20 -40 36 -40
10 0 6 199 -5 222 -4 9 -29 23 -55 32 -94 31 -190 37 -292 19z"/>
<path d="M2706 1384 c-3 -7 8 -17 25 -23 16 -5 30 -14 30 -18 7 -37 4 -702 -3
-715 -4 -9 -17 -20 -28 -23 -22 -7 -28 -35 -7 -36 16 -1 532 -1 578 0 l36 1 7
78 c6 79 13 128 21 150 3 7 -5 12 -19 12 -18 0 -25 -7 -30 -31 -3 -17 -21 -46
-40 -65 l-34 -34 -144 0 -145 0 1 325 c1 347 2 352 52 359 10 2 20 10 22 18 2
12 -21 15 -157 14 -117 0 -162 -3 -165 -12z"/>
<path d="M3510 1379 c0 -12 7 -19 18 -19 41 0 42 -10 42 -376 0 -307 -2 -355
-16 -368 -8 -9 -22 -16 -30 -16 -9 0 -14 -7 -12 -17 3 -15 33 -16 331 -16 180
0 329 2 332 4 2 2 7 54 10 114 4 61 8 112 10 115 2 3 -6 7 -19 8 -18 1 -24 -6
-34 -43 -22 -81 -32 -85 -219 -85 -148 0 -163 2 -164 18 -1 21 -1 212 0 230 1
9 27 12 99 12 103 0 117 -4 135 -40 23 -45 32 -20 34 101 2 92 0 120 -10 116
-6 -2 -17 -13 -23 -25 -18 -36 -21 -37 -130 -39 -101 -2 -104 -2 -105 20 -1
30 -1 112 0 173 l1 51 153 -2 c169 -1 192 -7 205 -58 5 -17 15 -32 23 -32 14
0 15 15 10 156 l-1 37 -320 0 c-306 0 -320 -1 -320 -19z"/>
<path d="M4630 1382 c0 -8 9 -16 19 -19 11 -3 21 -12 23 -21 3 -10 -57 -172
-132 -361 -118 -298 -141 -347 -170 -371 -18 -15 -29 -29 -24 -32 5 -3 66 -6
137 -6 97 0 127 3 127 13 0 7 -13 18 -30 24 -39 13 -38 32 3 141 l32 85 118 0
c69 0 122 -4 126 -10 8 -10 45 -120 54 -161 5 -25 -11 -49 -41 -58 -12 -4 -22
-14 -22 -21 0 -11 30 -13 162 -12 163 2 197 10 143 35 -35 16 -51 55 -165 412
-56 173 -106 329 -112 346 l-11 31 -119 0 c-95 -1 -118 -3 -118 -15z m164
-318 c14 -56 29 -109 32 -118 5 -14 -5 -16 -84 -16 l-90 0 28 73 c15 39 38
105 51 146 22 68 24 71 31 45 4 -16 18 -75 32 -130z"/>
<path d="M6290 1383 c0 -7 11 -15 24 -19 14 -3 27 -12 30 -20 3 -8 6 -139 6
-292 1 -324 8 -360 80 -424 65 -58 122 -73 275 -72 187 1 264 36 310 138 32
70 34 95 35 392 l0 262 30 12 c17 7 30 18 30 24 0 8 -45 12 -160 12 -126 1
-160 -2 -160 -12 0 -8 11 -16 25 -20 47 -12 48 -18 47 -313 0 -302 -5 -333
-56 -366 -38 -25 -151 -29 -196 -7 -66 32 -70 51 -70 373 0 295 1 302 40 311
15 3 30 17 30 29 0 3 -72 5 -160 5 -124 0 -160 -3 -160 -13z"/>
<path d="M7317 1379 c-4 -13 0 -19 12 -19 46 0 47 -14 45 -375 -1 -187 -2
-346 -3 -352 0 -7 -15 -20 -32 -29 -64 -33 -23 -37 309 -37 176 0 324 3 329 6
6 4 11 39 13 79 1 40 3 91 3 113 2 33 -1 40 -17 40 -14 0 -22 -12 -33 -47 -21
-74 -32 -78 -219 -78 l-161 0 0 129 c-1 90 3 131 10 133 10 3 126 2 190 -1 11
-1 23 -13 30 -31 6 -16 18 -30 27 -30 13 0 15 19 15 120 0 101 -2 120 -15 120
-9 0 -21 -13 -27 -30 -12 -33 -6 -31 -148 -33 l-80 0 0 119 0 119 157 0 c173
-1 190 -6 203 -67 5 -20 12 -28 23 -26 14 3 16 14 13 68 -2 36 -4 79 -5 95
l-1 30 -317 1 c-301 1 -317 1 -321 -17z"/>
<path d="M8145 518 c-125 -45 -137 -217 -19 -273 78 -37 167 -8 204 66 25 48
25 82 0 133 -31 65 -117 99 -185 74z m130 -50 c86 -82 28 -224 -88 -212 -74 7
-117 56 -112 128 8 105 125 154 200 84z"/>
<path d="M8139 455 c-5 -61 -2 -158 5 -162 13 -9 24 16 20 47 -3 21 1 28 12
26 18 -3 53 -44 54 -63 0 -7 10 -13 21 -13 20 0 21 1 5 23 -33 45 -37 57 -24
57 7 0 19 9 25 20 15 22 2 69 -19 71 -57 5 -98 3 -99 -6z m96 -25 c3 -5 2 -16
-1 -25 -10 -25 -66 -16 -70 12 -3 14 2 23 14 25 21 5 51 -2 57 -12z"/>
</g>
</svg>
